<svg width="1600" height="1200" viewBox="0 0 1600 1200" fill="none" xmlns="http://www.w3.org/2000/svg">
  <rect width="1600" height="1200" fill="#07111F"/>
  <g filter="url(#blurA)" opacity="0.95">
    <ellipse cx="310" cy="198" rx="420" ry="260" fill="url(#paint0_radial)"/>
    <ellipse cx="1260" cy="240" rx="470" ry="280" fill="url(#paint1_radial)"/>
    <ellipse cx="800" cy="748" rx="690" ry="360" fill="url(#paint2_radial)"/>
    <ellipse cx="1140" cy="930" rx="380" ry="220" fill="url(#paint3_radial)"/>
  </g>
  <g opacity="0.55">
    <path d="M-88 894C150 742 432 726 662 792C882 855 1103 1033 1414 984C1519 967 1592 924 1658 869V1258H-88V894Z" fill="url(#paint4_linear)"/>
    <path d="M1495 72C1306 158 1183 312 1024 338C885 362 762 282 597 293C389 307 230 450 137 643" stroke="url(#paint5_linear)" stroke-width="2" stroke-linecap="round" opacity="0.35"/>
    <path d="M-74 441C87 325 208 263 366 260C512 257 625 325 751 328C933 333 1072 186 1261 197C1391 204 1504 278 1607 411" stroke="url(#paint6_linear)" stroke-width="2" stroke-linecap="round" opacity="0.32"/>
  </g>
  <g opacity="0.72" filter="url(#blurB)">
    <circle cx="1338" cy="268" r="8" fill="#B8F7FF"/>
    <circle cx="1228" cy="328" r="5" fill="#A78BFA"/>
    <circle cx="1087" cy="213" r="6" fill="#6EE7B7"/>
    <circle cx="444" cy="903" r="7" fill="#93C5FD"/>
    <circle cx="595" cy="832" r="5" fill="#67E8F9"/>
    <circle cx="254" cy="746" r="4" fill="#E9D5FF"/>
  </g>
  <defs>
    <filter id="blurA" x="-230" y="-202" width="1948" height="1552" filterUnits="userSpaceOnUse" color-interpolation-filters="sRGB">
      <feFlood flood-opacity="0" result="BackgroundImageFix"/>
      <feBlend mode="normal" in="SourceGraphic" in2="BackgroundImageFix" result="shape"/>
      <feGaussianBlur stdDeviation="72" result="effect1_foregroundBlur"/>
    </filter>
    <filter id="blurB" x="202" y="161" width="1187" height="794" filterUnits="userSpaceOnUse" color-interpolation-filters="sRGB">
      <feFlood flood-opacity="0" result="BackgroundImageFix"/>
      <feBlend mode="normal" in="SourceGraphic" in2="BackgroundImageFix" result="shape"/>
      <feGaussianBlur stdDeviation="8" result="effect1_foregroundBlur"/>
    </filter>
    <radialGradient id="paint0_radial" cx="0" cy="0" r="1" gradientUnits="userSpaceOnUse" gradientTransform="translate(310 198) rotate(90) scale(260 420)">
      <stop stop-color="#53E5C8"/>
      <stop offset="0.45" stop-color="#1882FF" stop-opacity="0.76"/>
      <stop offset="1" stop-color="#07111F" stop-opacity="0"/>
    </radialGradient>
    <radialGradient id="paint1_radial" cx="0" cy="0" r="1" gradientUnits="userSpaceOnUse" gradientTransform="translate(1260 240) rotate(90) scale(280 470)">
      <stop stop-color="#A78BFA"/>
      <stop offset="0.5" stop-color="#34D399" stop-opacity="0.52"/>
      <stop offset="1" stop-color="#07111F" stop-opacity="0"/>
    </radialGradient>
    <radialGradient id="paint2_radial" cx="0" cy="0" r="1" gradientUnits="userSpaceOnUse" gradientTransform="translate(800 748) rotate(90) scale(360 690)">
      <stop stop-color="#0F766E" stop-opacity="0.72"/>
      <stop offset="0.52" stop-color="#0EA5E9" stop-opacity="0.34"/>
      <stop offset="1" stop-color="#07111F" stop-opacity="0"/>
    </radialGradient>
    <radialGradient id="paint3_radial" cx="0" cy="0" r="1" gradientUnits="userSpaceOnUse" gradientTransform="translate(1140 930) rotate(90) scale(220 380)">
      <stop stop-color="#99F6E4" stop-opacity="0.48"/>
      <stop offset="0.45" stop-color="#60A5FA" stop-opacity="0.21"/>
      <stop offset="1" stop-color="#07111F" stop-opacity="0"/>
    </radialGradient>
    <linearGradient id="paint4_linear" x1="777" y1="714" x2="777" y2="1258" gradientUnits="userSpaceOnUse">
      <stop stop-color="#07111F" stop-opacity="0"/>
      <stop offset="1" stop-color="#050B15"/>
    </linearGradient>
    <linearGradient id="paint5_linear" x1="1495" y1="72" x2="307" y2="760" gradientUnits="userSpaceOnUse">
      <stop stop-color="#D8B4FE"/>
      <stop offset="0.48" stop-color="#93C5FD"/>
      <stop offset="1" stop-color="#5EEAD4" stop-opacity="0.2"/>
    </linearGradient>
    <linearGradient id="paint6_linear" x1="-74" y1="441" x2="1607" y2="411" gradientUnits="userSpaceOnUse">
      <stop stop-color="#34D399" stop-opacity="0.08"/>
      <stop offset="0.5" stop-color="#E9D5FF"/>
      <stop offset="1" stop-color="#7DD3FC" stop-opacity="0.14"/>
    </linearGradient>
  </defs>
</svg>
